<svg width="481" height="157" viewBox="0 0 481 157" fill="none" xmlns="http://www.w3.org/2000/svg">
<path d="M87.5 11.9H87V156.2H87.6C120.9 156.2 148 123.9 148 84C147.9 44.2 120.9 11.9 87.5 11.9Z" fill="white"/>
<path d="M61.2004 0.0999756L0.400391 5.69997L4.3004 50.9L73.7004 137.6L61.2004 0.0999756Z" fill="#009B96"/>
<path d="M3.40039 156.3H60.9004L3.40039 70.2V156.3Z" fill="white"/>
<path d="M204.3 75.6H174.7V11.4H204C233.2 11.4 238.5 29.3 238.5 43.5C238.4 57.7 233.3 75.6 204.3 75.6ZM203.2 26.6H192.3V28.2V58.9V60.5H203.6C218.6 60.5 220.7 53.8 220.7 43.5C220.7 33.4 218.5 26.6 203.2 26.6Z" fill="white"/>
<path d="M282.2 76.4C259.4 76.4 247.2 62.8 247.2 43.8C247.2 24.9 259.3 10.6 282.2 10.6C305.3 10.6 317.3 24.9 317.3 43.8C317.3 62.9 304.7 76.4 282.2 76.4ZM282.2 25.9C269.9 25.9 264.8 33 264.8 43.9C264.8 54.4 269.8 61.3 282.2 61.3C294.6 61.3 299.5 54.5 299.5 43.9C299.5 33.2 294.5 25.9 282.2 25.9Z" fill="white"/>
<path d="M346.4 38.7H346.2V75.6H328.7V11.4H343L373.7 47.9H373.9V11.4H391.4V75.6H377.1L346.4 38.7Z" fill="white"/>
<path d="M192.4 119.3H192.2V156.2H174.7V92H189L219.7 128.5H219.9V92H237.4V156.2H223L192.4 119.3Z" fill="white"/>
<path d="M283.9 157C261.1 157 248.9 143.4 248.9 124.4C248.9 105.5 261 91.2 283.9 91.2C307 91.2 319 105.5 319 124.4C319 143.5 306.4 157 283.9 157ZM284 106.4C271.7 106.4 266.6 113.5 266.6 124.4C266.6 134.9 271.6 141.8 284 141.8C296.4 141.8 301.3 135 301.3 124.4C301.3 113.8 296.3 106.4 284 106.4Z" fill="white"/>
<path d="M360.1 156.2H330.5V92H359.7C388.9 92 394.2 109.9 394.2 124.1C394.2 138.3 389.2 156.2 360.1 156.2ZM359 107.1H348V108.7V139.4V141H359.3C374.3 141 376.4 134.3 376.4 124C376.5 113.9 374.3 107.1 359 107.1Z" fill="white"/>
<path d="M403.101 11.4V26.6L418.201 11.4H403.101Z" fill="#009B96"/>
<path d="M433.4 11.4L418.2 26.6H440.4V28.2V75.6H457.9V28.2V26.6H480.1V11.4H433.4Z" fill="white"/>
</svg>
